HIERARCHY
ROOT Hips
{
	OFFSET 0.000000 0.000000 0.000000
	CHANNELS 6 Xposition Yposition Zposition Xrotation Yrotation Zrotation
	JOINT LeftUpLeg_virtual
	{
		OFFSET 0.000000 0.000000 0.000000
		CHANNELS 3 Xrotation Yrotation Zrotation
		JOINT LeftUpLeg
		{
			OFFSET 15.427100 -6.655098 0.678600
			CHANNELS 3 Xrotation Yrotation Zrotation
			JOINT LeftLeg
			{
				OFFSET 4.081073 -39.591068 13.024000
				CHANNELS 3 Xrotation Yrotation Zrotation
				JOINT LeftFoot
				{
					OFFSET -4.081074 -37.707932 -15.979700
					CHANNELS 3 Xrotation Yrotation Zrotation
					JOINT LeftToeBase
					{
						OFFSET 5.346399 -15.068900 20.645000
						CHANNELS 3 Xrotation Yrotation Zrotation
						JOINT LeftToe_End
						{
							OFFSET 2.754700 0.931300 11.300900
							CHANNELS 3 Xrotation Yrotation Zrotation
							End Site
							{
								OFFSET 0 0 0
							}
						}
					}
				}
			}
		}
	}
	JOINT RightUpLeg_virtual
	{
		OFFSET 0.000000 0.000000 0.000000
		CHANNELS 3 Xrotation Yrotation Zrotation
		JOINT RightUpLeg
		{
			OFFSET -15.569500 -6.655098 0.678600
			CHANNELS 3 Xrotation Yrotation Zrotation
			JOINT RightLeg
			{
				OFFSET -4.081825 -39.591045 13.023800
				CHANNELS 3 Xrotation Yrotation Zrotation
				JOINT RightFoot
				{
					OFFSET 4.081824 -37.707954 -15.979600
					CHANNELS 3 Xrotation Yrotation Zrotation
					JOINT RightToeBase
					{
						OFFSET -5.346400 -15.068900 20.645000
						CHANNELS 3 Xrotation Yrotation Zrotation
						JOINT RightToe_End
						{
							OFFSET -2.754700 0.931300 11.300900
							CHANNELS 3 Xrotation Yrotation Zrotation
							End Site
							{
								OFFSET 0 0 0
							}
						}
					}
				}
			}
		}
	}
	JOINT Spine_virtual
	{
		OFFSET 0.000000 0.000000 0.000000
		CHANNELS 3 Xrotation Yrotation Zrotation
		JOINT Spine
		{
			OFFSET -0.279200 12.230698 -2.892100
			CHANNELS 3 Xrotation Yrotation Zrotation
			JOINT Spine1
			{
				OFFSET -0.232667 10.192268 -1.242267
				CHANNELS 3 Xrotation Yrotation Zrotation
				JOINT Spine1_split
				{
					OFFSET -0.232667 10.192268 -1.242267
					CHANNELS 3 Xrotation Yrotation Zrotation
					JOINT Spine2
					{
						OFFSET -0.232667 10.192268 -1.242267
						CHANNELS 3 Xrotation Yrotation Zrotation
						JOINT Neck_virtual
						{
							OFFSET 0.000000 0.000000 0.000000
							CHANNELS 3 Xrotation Yrotation Zrotation
							JOINT Neck
							{
								OFFSET -0.418800 17.814194 8.416900
								CHANNELS 3 Xrotation Yrotation Zrotation
								JOINT Head
								{
									OFFSET 0.000000 7.031097 3.806800
									CHANNELS 3 Xrotation Yrotation Zrotation
									JOINT HeadTop_End
									{
										OFFSET 0.000000 24.646606 12.978600
										CHANNELS 3 Xrotation Yrotation Zrotation
										End Site
										{
											OFFSET 0 0 0
										}
									}
								}
							}
						}
						JOINT LeftShoulder_virtual
						{
							OFFSET 0.000000 0.000000 0.000000
							CHANNELS 3 Xrotation Yrotation Zrotation
							JOINT LeftShoulder
							{
								OFFSET 8.476499 7.247704 -3.868750
								CHANNELS 3 Xrotation Yrotation Zrotation
								JOINT LeftShoulder_split
								{
									OFFSET 8.476499 7.247704 -3.868750
									CHANNELS 3 Xrotation Yrotation Zrotation
									JOINT LeftArm
									{
										OFFSET 9.308998 -2.777710 0.208600
										CHANNELS 3 Xrotation Yrotation Zrotation
										JOINT LeftForeArm
										{
											OFFSET 29.972298 0.000000 0.000000
											CHANNELS 3 Xrotation Yrotation Zrotation
											JOINT LeftHand
											{
												OFFSET 26.026505 0.000000 0.000000
												CHANNELS 3 Xrotation Yrotation Zrotation
												End Site
												{
													OFFSET 0 0 0
												}
											}
										}
									}
								}
							}
						}
						JOINT RightShoulder_virtual
						{
							OFFSET 0.000000 0.000000 0.000000
							CHANNELS 3 Xrotation Yrotation Zrotation
							JOINT RightShoulder
							{
								OFFSET -7.570500 7.247704 -3.868750
								CHANNELS 3 Xrotation Yrotation Zrotation
								JOINT RightShoulder_split
								{
									OFFSET -7.570500 7.247704 -3.868750
									CHANNELS 3 Xrotation Yrotation Zrotation
									JOINT RightArm
									{
										OFFSET -9.308998 -2.777710 0.208500
										CHANNELS 3 Xrotation Yrotation Zrotation
										JOINT RightForeArm
										{
											OFFSET -29.972300 0.000000 0.000000
											CHANNELS 3 Xrotation Yrotation Zrotation
											JOINT RightHand
											{
												OFFSET -26.026505 0.000000 0.000000
												CHANNELS 3 Xrotation Yrotation Zrotation
												End Site
												{
													OFFSET 0 0 0
												}
											}
										}
									}
								}
							}
						}
					}
				}
			}
		}
	}
}
MOTION
Frames: 12
Frame Time: 0.03333333
-1.245933 90.409676 -2.168041 0.000000 0.000000 0.000000 2.305373 6.080344 6.278961 -5.473117 4.781129 1.223423 15.220076 4.686822 -1.241709 -10.544617 1.330761 -7.345327 0.438590 -0.038399 -1.605560 0.000000 0.000000 0.000000 2.845872 5.835723 6.269916 -8.744277 -9.874790 -19.901419 22.721934 1.736137 2.102950 -14.778217 -9.231545 6.299620 -2.651714 0.415912 0.438107 0.000000 0.000000 0.000000 3.180841 5.565398 5.783252 8.025864 -0.933892 7.423495 2.238582 -0.165431 1.605697 0.828214 -0.529376 0.415495 0.000000 0.000000 0.000000 1.466488 -0.139471 1.252042 0.691136 0.615194 2.457919 -4.806781 -13.781694 -0.959742 0.000000 0.000000 0.000000 2.011742 -0.235345 1.373156 1.067477 -5.220813 -12.137262 0.427959 -0.013773 -1.484656 6.243775 -7.448893 -41.083096 0.019582 -68.656652 -0.006301 0.000000 0.000000 0.000000 2.061797 -0.055498 1.244940 1.260668 16.240549 13.604184 -1.328595 1.123333 0.518836 -27.492797 14.343542 60.707643 -139.920605 88.260210 139.428545 0.000000 0.000000 0.000000 
-1.248237 90.415237 -2.038654 0.000000 0.000000 0.000000 2.274379 5.765849 6.328790 -5.298164 4.809556 1.245212 15.212841 4.810720 -1.199558 -10.660516 1.271096 -7.430940 0.478822 -0.038131 -1.609561 0.000000 0.000000 0.000000 2.822882 5.528124 6.318459 -8.441392 -9.313331 -19.808411 22.628236 1.333265 2.037659 -14.937656 -9.288389 6.273244 -2.595496 0.413029 0.418387 0.000000 0.000000 0.000000 3.155675 5.484448 5.821433 7.968520 -1.269240 7.456236 2.206830 -0.199995 1.599350 0.839119 -0.620025 0.374229 0.000000 0.000000 0.000000 1.468590 -0.173320 1.233305 0.687597 0.798164 2.303445 -5.532812 -13.512886 -1.200570 0.000000 0.000000 0.000000 1.978462 -0.262370 1.388231 1.009369 -5.339112 -12.269894 0.550215 0.166507 -1.570662 6.546668 -7.748396 -41.022731 0.074660 -68.826184 -0.015600 0.000000 0.000000 0.000000 2.033546 -0.124597 1.241361 1.347409 16.722617 13.773138 -1.478827 1.305161 0.580816 -21.936908 16.938096 60.370553 -170.446701 83.977572 169.910286 0.000000 0.000000 0.000000 
-1.198927 90.434143 -1.933617 0.000000 0.000000 0.000000 2.208861 5.445522 6.354234 -5.101984 4.866523 1.265299 15.207459 4.971000 -1.184924 -10.790577 1.173697 -7.494254 0.539894 -0.041092 -1.596789 0.000000 0.000000 0.000000 2.755227 5.206712 6.342442 -8.081723 -8.757597 -19.738774 22.494832 0.929150 1.981671 -15.053742 -9.353156 6.259640 -2.507945 0.409319 0.401310 0.000000 0.000000 0.000000 3.124753 5.339795 5.835747 7.914407 -1.634095 7.459910 2.167078 -0.277484 1.587914 0.861262 -0.669035 0.330391 0.000000 0.000000 0.000000 1.457736 -0.243090 1.222108 0.700015 0.983850 2.121863 -6.245589 -13.160646 -1.498323 0.000000 0.000000 0.000000 1.945590 -0.323302 1.404411 0.952540 -5.481891 -12.329540 0.653583 0.380718 -1.584377 6.947609 -8.189381 -40.928706 0.130790 -68.913733 -0.038020 0.000000 0.000000 0.000000 2.002604 -0.227317 1.243302 1.461134 17.280112 13.761415 -1.591483 1.410744 0.714279 -16.780887 20.552898 59.445827 -174.661283 80.594265 174.093162 0.000000 0.000000 0.000000 
-1.101703 90.468704 -1.841915 0.000000 0.000000 0.000000 2.100027 5.105533 6.351864 -4.868245 4.938332 1.286015 15.194724 5.175350 -1.189250 -10.942572 1.061708 -7.525383 0.619837 -0.044653 -1.574231 0.000000 0.000000 0.000000 2.628009 4.858174 6.340351 -7.677368 -8.223360 -19.683345 22.344633 0.549781 1.939489 -15.099004 -9.417578 6.284433 -2.453800 0.404122 0.387115 0.000000 0.000000 0.000000 3.066073 5.094905 5.822176 7.859330 -1.999924 7.410789 2.122104 -0.380407 1.566241 0.876548 -0.691247 0.309980 0.000000 0.000000 0.000000 1.438679 -0.332411 1.207921 0.728271 1.155485 1.913916 -6.883649 -12.764896 -1.826427 0.000000 0.000000 0.000000 1.917012 -0.404791 1.416401 0.899164 -5.621530 -12.293085 0.732913 0.637619 -1.550276 7.388550 -8.751614 -40.828672 0.220325 -68.958560 -0.038052 0.000000 0.000000 0.000000 1.968791 -0.347909 1.241908 1.591840 17.969956 13.603015 -1.732739 1.527641 0.801370 -12.037186 25.122462 57.651284 -176.021297 78.492138 175.437766 0.000000 0.000000 0.000000 
-0.967217 90.510406 -1.762745 0.000000 0.000000 0.000000 1.942760 4.734477 6.318355 -4.583033 5.017909 1.317292 15.165673 5.434367 -1.206235 -11.118428 0.960186 -7.506485 0.714453 -0.047533 -1.550853 0.000000 0.000000 0.000000 2.444594 4.468478 6.307539 -7.237385 -7.710972 -19.620526 22.180387 0.217059 1.910004 -15.078264 -9.473474 6.345944 -2.446896 0.396160 0.377475 0.000000 0.000000 0.000000 2.951307 4.744518 5.780086 7.799524 -2.328435 7.290902 2.083872 -0.487362 1.525837 0.830564 -0.692963 0.319672 0.000000 0.000000 0.000000 1.414633 -0.414125 1.179986 0.785380 1.308431 1.685539 -7.408596 -12.406986 -2.155358 0.000000 0.000000 0.000000 1.899037 -0.485795 1.417854 0.846276 -5.749727 -12.150657 0.810628 0.886682 -1.476841 7.764520 -9.378324 -40.754400 0.330779 -69.013208 -0.016104 0.000000 0.000000 0.000000 1.915102 -0.464209 1.228827 1.729065 18.821966 13.314364 -1.766541 1.647822 0.747005 -7.646369 30.457938 54.727362 -176.179962 77.579249 175.582526 0.000000 0.000000 0.000000 
-0.804765 90.557724 -1.687130 0.000000 0.000000 0.000000 1.740314 4.305678 6.246332 -4.240561 5.112535 1.368627 15.123751 5.749476 -1.233404 -11.316269 0.883546 -7.429158 0.817342 -0.047369 -1.531675 0.000000 0.000000 0.000000 2.208634 4.024064 6.238186 -6.758765 -7.217790 -19.530229 21.995145 -0.054758 1.890430 -15.017812 -9.512693 6.420689 -2.473665 0.384955 0.375790 0.000000 0.000000 0.000000 2.769406 4.308335 5.701472 7.730002 -2.581523 7.091788 2.053752 -0.572583 1.459285 0.739155 -0.775625 0.363862 0.000000 0.000000 0.000000 1.388585 -0.465017 1.128926 0.872580 1.428569 1.454232 -7.814619 -12.164805 -2.467689 0.000000 0.000000 0.000000 1.883146 -0.544368 1.402094 0.790771 -5.874537 -11.914684 0.909854 1.138899 -1.387738 7.960246 -10.033182 -40.746887 0.453329 -69.121446 0.030009 0.000000 0.000000 0.000000 1.834874 -0.561205 1.193629 1.870333 19.846093 12.940828 -1.755224 1.789995 0.634455 -3.408909 36.199702 50.526806 -175.596186 77.680083 174.979939 0.000000 0.000000 0.000000 
-0.622868 90.606178 -1.620220 0.000000 0.000000 0.000000 1.502064 3.794346 6.126746 -3.853008 5.236603 1.455519 15.077487 6.116352 -1.265856 -11.533904 0.836779 -7.297995 0.941439 -0.045025 -1.521527 0.000000 0.000000 0.000000 1.953158 3.527894 6.121748 -6.258776 -6.728935 -19.399523 21.779545 -0.260249 1.879981 -14.920570 -9.532221 6.493006 -2.524103 0.371459 0.382318 0.000000 0.000000 0.000000 2.525951 3.811239 5.578949 7.649528 -2.734660 6.812309 2.035357 -0.624813 1.364340 0.676704 -0.964063 0.408233 0.000000 0.000000 0.000000 1.368730 -0.475634 1.053013 0.950917 1.518458 1.240384 -8.126233 -12.115051 -2.745640 0.000000 0.000000 0.000000 1.854883 -0.569445 1.361388 0.728543 -6.011974 -11.628144 1.026425 1.322211 -1.258240 7.911404 -10.674325 -40.828234 0.541847 -69.286115 0.068119 0.000000 0.000000 0.000000 1.724895 -0.628843 1.135744 2.009784 21.024588 12.563360 -1.750944 1.909748 0.529718 0.908792 41.956920 45.117238 -174.406777 78.554060 173.776924 0.000000 0.000000 0.000000 
-0.427588 90.655876 -1.565758 0.000000 0.000000 0.000000 1.252975 3.198161 5.946475 -3.446559 5.401649 1.593674 15.033040 6.515854 -1.304146 -11.779121 0.817967 -7.129946 1.088223 -0.039990 -1.518490 0.000000 0.000000 0.000000 1.700414 2.975245 5.946226 -5.759775 -6.241926 -19.219100 21.522462 -0.388902 1.881890 -14.760169 -9.526760 6.567939 -2.586394 0.356386 0.393637 0.000000 0.000000 0.000000 2.246231 3.278656 5.401728 7.564948 -2.775967 6.471603 2.030147 -0.641642 1.247346 0.689933 -1.193241 0.456472 0.000000 0.000000 0.000000 1.351641 -0.447826 0.961999 1.013574 1.563504 1.059586 -8.377343 -12.294053 -2.987577 0.000000 0.000000 0.000000 1.811843 -0.557708 1.297951 0.660294 -6.183884 -11.330400 1.148261 1.454857 -1.118327 7.632511 -11.294957 -40.987217 0.558758 -69.454015 0.070775 0.000000 0.000000 0.000000 1.590807 -0.664088 1.062819 2.145299 22.328628 12.227954 -1.731025 1.976870 0.501650 5.498348 47.291461 38.658550 -172.514746 80.056989 171.889948 0.000000 0.000000 0.000000 
-0.222709 90.703644 -1.535809 0.000000 0.000000 0.000000 1.014218 2.513506 5.693229 -3.064407 5.613653 1.799296 15.003240 6.932106 -1.345164 -12.055682 0.824754 -6.951528 1.249846 -0.031831 -1.518656 0.000000 0.000000 0.000000 1.475593 2.357741 5.700974 -5.292871 -5.754003 -18.972459 21.219740 -0.423475 1.899618 -14.524879 -9.486405 6.667280 -2.661625 0.342016 0.403567 0.000000 0.000000 0.000000 1.967745 2.731626 5.154271 7.480229 -2.708920 6.094372 2.029435 -0.628351 1.119327 0.736459 -1.423162 0.489533 0.000000 0.000000 0.000000 1.337109 -0.396489 0.868088 1.034308 1.556818 0.934840 -8.585775 -12.700674 -3.203378 0.000000 0.000000 0.000000 1.746220 -0.515875 1.221523 0.587228 -6.394330 -11.051449 1.321072 1.505147 -0.964248 7.215452 -11.898416 -41.183995 0.510462 -69.565176 0.046166 0.000000 0.000000 0.000000 1.445463 -0.673486 0.986410 2.269521 23.694941 11.960787 -1.693703 2.001852 0.568464 10.368876 51.921271 31.470103 -169.573380 82.126031 168.977555 0.000000 0.000000 0.000000 
-0.005974 90.747993 -1.532387 0.000000 0.000000 0.000000 0.810457 1.761443 5.360137 -2.744902 5.864960 2.082409 15.010736 7.349599 -1.381512 -12.359917 0.865274 -6.780421 1.412663 -0.020726 -1.522279 0.000000 0.000000 0.000000 1.296095 1.684068 5.375536 -4.868120 -5.273398 -18.640336 20.862499 -0.368523 1.932838 -14.229091 -9.415561 6.791009 -2.745256 0.329148 0.408709 0.000000 0.000000 0.000000 1.731614 2.160346 4.828981 7.399508 -2.553859 5.714341 2.030139 -0.597454 0.989461 0.785390 -1.571566 0.537901 0.000000 0.000000 0.000000 1.330953 -0.336347 0.783452 1.013326 1.494988 0.877968 -8.754931 -13.308167 -3.409272 0.000000 0.000000 0.000000 1.665172 -0.455486 1.141412 0.512526 -6.644189 -10.806633 1.530487 1.489363 -0.809524 6.798191 -12.498328 -41.351270 0.407898 -69.575428 -0.001401 0.000000 0.000000 0.000000 1.295875 -0.661688 0.916104 2.379661 25.046643 11.725457 -1.546558 2.095825 0.684818 15.351952 55.773296 23.888633 -163.638232 84.672844 163.094877 0.000000 0.000000 0.000000 
0.220770 90.782082 -1.552086 0.000000 0.000000 0.000000 0.662112 0.961256 4.945429 -2.516203 6.128758 2.443873 15.083713 7.756683 -1.403378 -12.694934 0.958212 -6.625172 1.567568 -0.006757 -1.531260 0.000000 0.000000 0.000000 1.167950 0.956516 4.969915 -4.493572 -4.808767 -18.202196 20.457482 -0.242536 1.974779 -13.916031 -9.328088 6.912535 -2.815082 0.318141 0.406819 0.000000 0.000000 0.000000 1.564770 1.573888 4.425610 7.318681 -2.333660 5.363933 2.023845 -0.559141 0.861022 0.804071 -1.622723 0.588432 0.000000 0.000000 0.000000 1.335211 -0.279116 0.706543 0.972997 1.378445 0.888835 -8.866855 -14.067731 -3.614205 0.000000 0.000000 0.000000 1.582504 -0.387353 1.065896 0.442698 -6.912437 -10.584109 1.797595 1.464738 -0.721384 6.492362 -13.097731 -41.430599 0.298638 -69.479266 -0.031717 0.000000 0.000000 0.000000 1.148172 -0.644372 0.848732 2.494949 26.268803 11.431490 -1.382608 2.197206 0.863623 20.314292 58.954416 16.131862 -144.323550 87.408745 143.856488 0.000000 0.000000 0.000000 
0.455169 90.801010 -1.583672 0.000000 0.000000 0.000000 0.572213 0.155562 4.459155 -2.385913 6.380375 2.872752 15.231472 8.146956 -1.402156 -13.064364 1.116263 -6.483783 1.709826 0.010083 -1.550948 0.000000 0.000000 0.000000 1.089637 0.209336 4.494349 -4.164527 -4.359744 -17.662207 20.023482 -0.074113 2.020308 -13.618607 -9.244185 7.014348 -2.855050 0.308457 0.400309 0.000000 0.000000 0.000000 1.481308 0.973745 3.958922 7.224984 -2.078023 5.064457 2.013365 -0.522994 0.732648 0.785185 -1.607305 0.593897 0.000000 0.000000 0.000000 1.358841 -0.232806 0.633648 0.922339 1.236293 0.949752 -8.908464 -14.933394 -3.821763 0.000000 0.000000 0.000000 1.498777 -0.320919 0.996033 0.377733 -7.179210 -10.386758 2.066644 1.414975 -0.675944 6.344418 -13.656205 -41.380418 0.224860 -69.319460 -0.012719 0.000000 0.000000 0.000000 1.004365 -0.626199 0.778262 2.619173 27.271622 11.027982 -1.134592 2.320240 1.100209 25.188232 61.589523 8.313290 -55.643424 88.209434 55.260305 0.000000 0.000000 0.000000 
